<svg width="24" height="30" viewBox="0 0 24 30" fill="none" xmlns="http://www.w3.org/2000/svg">
<path d="M0 0.961304L2.18331 26.8727L11.9864 29.7613L21.8153 26.8626L24 0.961304H0ZM19.463 6.89842L18.7353 15.5298L18.738 15.5773L18.7353 15.6839L18.2174 21.7175L18.1615 22.2546L12 24.0546L11.9945 24.0603L5.84532 22.2488L5.42828 17.2592H8.44293L8.6569 19.7965L12 20.7541L15.354 19.7835L15.7083 15.6522H8.69779L8.63782 14.9538L8.50017 13.3179L8.4293 12.4395H15.9768L16.2521 9.22546H4.7523L4.69233 8.52706L4.55605 6.88978L4.48382 6.01138H19.5353L19.463 6.89842Z" fill="#00FFD1"/>
</svg>
