<svg width="24" height="35" viewBox="0 0 24 35" fill="none" xmlns="http://www.w3.org/2000/svg">
<path d="M20.8785 11.975C22.0741 11.234 22.9959 10.1237 23.5042 8.81212C24.0125 7.50053 24.0798 6.05904 23.6957 4.70583C23.3117 3.35261 22.4973 2.16131 21.3758 1.31223C20.2544 0.463154 18.8868 0.00250402 17.4802 0H6.47608C5.06943 0.00250402 3.70188 0.463154 2.5804 1.31223C1.45891 2.16131 0.644532 3.35261 0.260511 4.70583C-0.123511 6.05904 -0.0562721 7.50053 0.45205 8.81212C0.960373 10.1237 1.88211 11.234 3.07777 11.975C2.13728 12.5526 1.36055 13.3617 0.821731 14.3249C0.282914 15.2881 0 16.3734 0 17.4771C0 18.5808 0.282914 19.666 0.821731 20.6292C1.36055 21.5925 2.13728 22.4015 3.07777 22.9791C2.11725 23.5716 1.32832 24.4049 0.789262 25.3964C0.2502 26.3879 -0.0202693 27.5031 0.00468478 28.6314C0.0296389 29.7597 0.349149 30.8618 0.931521 31.8285C1.51389 32.7952 2.33889 33.5929 3.32466 34.1423C4.31044 34.6918 5.42274 34.9739 6.55122 34.9608C7.67971 34.9477 8.78516 34.6398 9.75791 34.0676C10.7307 33.4954 11.5369 32.6789 12.0967 31.6989C12.6565 30.719 12.9503 29.6097 12.9491 28.4811V22.0891C13.5965 22.7368 14.3741 23.2397 15.2303 23.5647C16.0865 23.8896 17.002 24.0292 17.9161 23.9741C18.8303 23.9191 19.7224 23.6706 20.5334 23.2453C21.3445 22.8199 22.056 22.2273 22.6211 21.5066C23.1861 20.7859 23.5918 19.9534 23.8113 19.0643C24.0308 18.1752 24.0592 17.2496 23.8945 16.3487C23.7298 15.4478 23.3758 14.5921 22.8559 13.8382C22.336 13.0842 21.662 12.4492 20.8785 11.975ZM22.0112 6.47299C22.007 7.67339 21.5282 8.82342 20.6794 9.67224C19.8306 10.5211 18.6806 10.9998 17.4802 11.0041H12.9491V1.9419H17.4802C18.6806 1.94616 19.8306 2.42491 20.6794 3.27373C21.5282 4.12255 22.007 5.27258 22.0112 6.47299ZM1.94499 6.47299C1.94926 5.27258 2.42801 4.12255 3.27683 3.27373C4.12565 2.42491 5.27568 1.94616 6.47608 1.9419H11.0072V11.0041H6.47608C5.27568 10.9998 4.12565 10.5211 3.27683 9.67224C2.42801 8.82342 1.94926 7.67339 1.94499 6.47299ZM1.94499 17.4771C1.94926 16.2767 2.42801 15.1266 3.27683 14.2778C4.12565 13.429 5.27568 12.9502 6.47608 12.946H11.0072V22.0082H6.47608C5.27568 22.0039 4.12565 21.5251 3.27683 20.6763C2.42801 19.8275 1.94926 18.6775 1.94499 17.4771ZM6.47608 33.0122C5.27436 33.0122 4.12186 32.5349 3.27212 31.6851C2.42238 30.8354 1.94499 29.6829 1.94499 28.4811C1.94499 27.2794 2.42238 26.1269 3.27212 25.2772C4.12186 24.4274 5.27436 23.9501 6.47608 23.9501H11.0072V28.4811C11.0029 29.6815 10.5242 30.8316 9.67534 31.6804C8.82652 32.5292 7.67649 33.008 6.47608 33.0122ZM17.4802 22.0082C16.2784 22.0082 15.1259 21.5308 14.2762 20.681C13.4265 19.8313 12.9491 18.6788 12.9491 17.4771C12.9491 16.2753 13.4265 15.1228 14.2762 14.2731C15.1259 13.4234 16.2784 12.946 17.4802 12.946C18.6819 12.946 19.8344 13.4234 20.6841 14.2731C21.5339 15.1228 22.0112 16.2753 22.0112 17.4771C22.0112 18.6788 21.5339 19.8313 20.6841 20.681C19.8344 21.5308 18.6819 22.0082 17.4802 22.0082Z" fill="#00FF47"/>
</svg>
