<svg width="24" height="25" viewBox="0 0 24 25" fill="none" xmlns="http://www.w3.org/2000/svg">
<g clip-path="url(#clip0_31_52)">
<path d="M0 0.76123H24V24.7612H0V0.76123Z" fill="#FFE400"/>
<path d="M17.5778 20.6456C17.7567 21.009 18.0347 21.3145 18.3797 21.5268C18.7247 21.7391 19.1227 21.8496 19.5278 21.8456C20.3453 21.8456 20.868 21.4368 20.868 20.8706C20.868 20.1956 20.331 19.9541 19.431 19.5603L18.9375 19.3488C17.5125 18.7421 16.5675 17.9823 16.5675 16.3758C16.5675 14.8961 17.6925 13.7688 19.4573 13.7688C20.0285 13.7276 20.5993 13.8554 21.0984 14.1364C21.5975 14.4175 22.0028 14.8392 22.2638 15.3491L20.721 16.3353C20.6205 16.0825 20.4456 15.8662 20.2193 15.7151C19.9931 15.564 19.7263 15.4853 19.4543 15.4893C19.3356 15.4774 19.2157 15.4904 19.1023 15.5274C18.9889 15.5644 18.8845 15.6246 18.7957 15.7042C18.7068 15.7838 18.6356 15.881 18.5864 15.9897C18.5372 16.0983 18.5112 16.216 18.51 16.3353C18.51 16.9271 18.8767 17.1671 19.7235 17.5353L20.217 17.7468C21.894 18.4661 22.842 19.1988 22.842 20.8466C22.842 22.6233 21.4463 23.5968 19.572 23.5968C18.8417 23.6433 18.1136 23.4775 17.4755 23.1194C16.8373 22.7613 16.3165 22.2261 15.9758 21.5786L17.5778 20.6456ZM10.6065 20.8166C10.9163 21.3663 11.1983 21.8313 11.8763 21.8313C12.5243 21.8313 12.9337 21.5778 12.9337 20.5916V13.8813H14.907V20.6178C14.907 22.6608 13.707 23.5908 11.9603 23.5908C11.3428 23.6246 10.7296 23.4707 10.2013 23.1494C9.67291 22.8281 9.25414 22.3545 9 21.7908L10.6065 20.8166Z" fill="black"/>
</g>
<defs>
<clipPath id="clip0_31_52">
<rect width="24" height="24" fill="white" transform="translate(0 0.76123)"/>
</clipPath>
</defs>
</svg>
