<svg width="150" height="102" viewBox="0 0 150 102" fill="none" xmlns="http://www.w3.org/2000/svg">
<g clip-path="url(#clip0_8_19)">
<mask id="mask0_8_19" style="mask-type:alpha" maskUnits="userSpaceOnUse" x="44" y="0" width="62" height="66">
<path d="M105.102 0.287197H44.055V65.8242H105.102V0.287197Z" fill="white"/>
</mask>
<g mask="url(#mask0_8_19)">
<path d="M98.9969 63.606H83.97C83.5943 63.606 83.2188 63.9084 83.2188 64.4125C83.2188 64.9168 83.5003 65.2192 83.97 65.2192H98.9969C99.3724 65.2192 99.7481 64.9168 99.7481 64.4125C99.7481 63.9084 99.3724 63.606 98.9969 63.606Z" fill="white"/>
<path d="M104.632 63.606H102.754C102.378 63.606 102.002 63.9084 102.002 64.4125C102.002 64.9168 102.284 65.2192 102.754 65.2192H104.632C105.007 65.2192 105.383 64.9168 105.383 64.4125C105.383 63.9084 105.007 63.606 104.632 63.606Z" fill="white"/>
<path d="M72.6998 6.63925H84.9091C85.2848 6.63925 85.6606 6.33671 85.6606 5.83269C85.6606 5.32851 85.3788 5.02597 84.9091 5.02597H72.6998C72.3242 5.02597 71.9485 5.32851 71.9485 5.83269C71.9485 6.33671 72.3242 6.63925 72.6998 6.63925Z" fill="white"/>
<path d="M88.6659 6.63925H89.6051C89.9806 6.63925 90.3563 6.33671 90.3563 5.83269C90.3563 5.32851 90.0746 5.02597 89.6051 5.02597H88.6659C88.2903 5.02597 87.9145 5.32851 87.9145 5.83269C87.9145 6.33671 88.2903 6.63925 88.6659 6.63925Z" fill="white"/>
<path d="M44.5247 4.62269H45.7456V5.93343C45.7456 6.33671 46.0271 6.73999 46.4969 6.73999C46.9666 6.73999 47.2481 6.43762 47.2481 5.93343V4.62269H48.469C48.8447 4.62269 49.2206 4.32032 49.2206 3.81614C49.2206 3.31195 48.6569 3.11032 48.2812 3.11032H47.1542V1.79958C47.1542 1.3963 46.8726 0.993019 46.4028 0.993019C45.9333 0.993019 45.7456 1.3963 45.7456 1.79958V3.11032H44.5247C44.149 3.11032 43.7731 3.41286 43.7731 3.91688C43.7731 4.42104 44.149 4.62269 44.5247 4.62269Z" fill="white"/>
<path d="M103.505 60.2786V9.86565C103.505 9.46237 103.223 9.0591 102.754 9.0591H44.5247C44.149 9.0591 43.7731 9.36147 43.7731 9.86565V42.1299C43.7731 42.5335 44.055 42.9366 44.5247 42.9366C44.9941 42.9366 45.2759 42.6342 45.2759 42.1299V18.7385H102.096V59.5731H45.2759V48.1796C45.2759 47.7764 44.9941 47.3729 44.5247 47.3729C44.055 47.3729 43.7731 47.6755 43.7731 48.1796V60.2786C43.7731 60.6821 44.055 61.0855 44.5247 61.0855H102.754C103.129 61.0855 103.505 60.6821 103.505 60.2786ZM45.2759 17.2259V10.6722H64.5289V17.2259H45.2759ZM65.9377 17.2259V10.6722H102.096V17.2259H65.9377Z" fill="white"/>
<path d="M98.9969 57.0523C99.3724 57.0523 99.7481 56.7499 99.7481 56.2457V21.9648C99.7481 21.5616 99.4664 21.1583 98.9969 21.1583H48.2812C47.9056 21.1583 47.5299 21.4607 47.5299 21.9648V56.2457C47.5299 56.649 47.8116 57.0523 48.2812 57.0523H98.9969ZM49.0326 22.7714H98.3393V55.5399H49.0326V22.7714Z" fill="white"/>
<path d="M50.1596 14.907C50.6784 14.907 51.0987 14.4557 51.0987 13.8988C51.0987 13.3419 50.6784 12.8904 50.1596 12.8904C49.6409 12.8904 49.2206 13.3419 49.2206 13.8988C49.2206 14.4557 49.6409 14.907 50.1596 14.907Z" fill="white"/>
<path d="M54.8555 14.907C55.3742 14.907 55.7946 14.4557 55.7946 13.8988C55.7946 13.3419 55.3742 12.8904 54.8555 12.8904C54.3368 12.8904 53.9164 13.3419 53.9164 13.8988C53.9164 14.4557 54.3368 14.907 54.8555 14.907Z" fill="white"/>
<path d="M59.5514 14.907C60.0701 14.907 60.4906 14.4557 60.4906 13.8988C60.4906 13.3419 60.0701 12.8904 59.5514 12.8904C59.0327 12.8904 58.6122 13.3419 58.6122 13.8988C58.6122 14.4557 59.0327 14.907 59.5514 14.907Z" fill="white"/>
<path d="M98.0578 13.193H69.8824C69.5067 13.193 69.131 13.4955 69.131 13.9995C69.131 14.5037 69.4127 14.8062 69.8824 14.8062H98.0578C98.4333 14.8062 98.809 14.5037 98.809 13.9995C98.809 13.4955 98.4333 13.193 98.0578 13.193Z" fill="white"/>
<path d="M94.301 29.3251H83.0307C82.655 29.3251 82.2795 29.6277 82.2795 30.1316C82.2795 30.6359 82.5612 30.9385 83.0307 30.9385H94.301C94.6765 30.9385 95.0522 30.6359 95.0522 30.1316C95.0522 29.6277 94.6765 29.3251 94.301 29.3251Z" fill="white"/>
<path d="M94.301 35.3746H83.0307C82.655 35.3746 82.2795 35.6772 82.2795 36.1814C82.2795 36.6853 82.5612 36.9879 83.0307 36.9879H94.301C94.6765 36.9879 95.0522 36.6853 95.0522 36.1814C95.0522 35.6772 94.6765 35.3746 94.301 35.3746Z" fill="white"/>
<path d="M94.301 41.4244H73.6392C73.2633 41.4244 72.8876 41.7266 72.8876 42.2309C72.8876 42.7351 73.1695 43.0373 73.6392 43.0373H94.301C94.6767 43.0373 95.0522 42.7351 95.0522 42.2309C95.0522 41.7266 94.6767 41.4244 94.301 41.4244Z" fill="white"/>
<path d="M94.301 47.4738H73.6392C73.2633 47.4738 72.8876 47.7764 72.8876 48.2803C72.8876 48.7846 73.1695 49.0871 73.6392 49.0871H94.301C94.6767 49.0871 95.0522 48.7846 95.0522 48.2803C95.0522 47.7764 94.6767 47.4738 94.301 47.4738Z" fill="white"/>
<path d="M69.6005 27.8127V27.7118C69.6005 27.7118 69.6005 27.6111 69.5067 27.6111L69.4127 27.5101H69.3188L69.2248 27.4094C69.2248 27.4094 69.131 27.4094 69.037 27.4094H68.9431H52.038C51.6624 27.4094 51.2866 27.7118 51.2866 28.2161V50.3979C51.2866 50.4986 51.2866 50.4986 51.2866 50.5996V50.7003C51.2866 50.7003 51.2866 50.801 51.3806 50.801C51.4746 50.7003 51.5684 50.7003 51.5684 50.801C51.5684 50.801 51.6624 50.801 51.6624 50.9018C51.6624 50.9018 51.7563 50.9018 51.7563 51.0027C51.8501 51.0027 51.9439 51.1034 52.038 51.1034H68.9431C69.3188 51.1034 69.6945 50.801 69.6945 50.297V28.1153C69.6005 27.9137 69.6005 27.9137 69.6005 27.8127ZM67.4405 28.8209L52.7893 48.0788V28.8209H67.4405ZM53.5406 49.4903L68.2857 30.2325V49.4903H53.5406Z" fill="white"/>
<path d="M44.5245 45.8596C44.6184 45.8596 44.7124 45.8596 44.8062 45.759C44.9002 45.759 44.9941 45.759 44.9941 45.6581C45.0881 45.4567 45.1819 45.356 45.1819 45.1545C45.1819 45.0536 45.1819 44.953 45.0881 44.8521C44.9941 44.7512 45.0881 44.6505 44.9941 44.6505C44.7124 44.3481 44.2428 44.3481 43.961 44.6505C43.8671 44.7512 43.8671 44.8521 43.7731 44.8521C43.7731 44.953 43.6793 45.0536 43.6793 45.1545C43.6793 45.356 43.7731 45.5574 43.8671 45.6581C44.149 45.8596 44.3368 45.8596 44.5245 45.8596Z" fill="white"/>
</g>
<path d="M6.53376 82.6765C7.84043 82.6765 8.94623 82.8351 9.85094 83.1527C10.7723 83.4523 11.5094 83.9637 12.0623 84.6865C12.6319 85.3918 13.0423 86.3526 13.2936 87.5693C13.5449 88.7683 13.6705 90.2582 13.6705 92.039C13.6705 93.8197 13.5449 95.3184 13.2936 96.535C13.0423 97.7339 12.6319 98.6949 12.0623 99.4177C11.5094 100.123 10.7723 100.634 9.85094 100.952C8.94623 101.252 7.84043 101.401 6.53376 101.401C5.2773 101.401 4.1129 101.375 3.04069 101.322C1.96849 101.287 0.954926 101.234 0 101.163L1.30675 98.6243C1.97688 98.6595 2.74751 98.6949 3.6187 98.7301C4.48983 98.7479 5.46157 98.7567 6.53376 98.7567C7.50549 98.7567 8.26777 98.5627 8.82058 98.1749C9.39017 97.7693 9.79216 97.0818 10.0268 96.112C10.2613 95.1246 10.3786 93.7669 10.3786 92.039C10.3786 90.311 10.2613 88.9623 10.0268 87.9925C9.79216 87.0052 9.39017 86.3086 8.82058 85.903C8.26777 85.4976 7.50549 85.2948 6.53376 85.2948C5.49499 85.2948 4.56525 85.3038 3.74435 85.3212C2.94017 85.339 2.15278 85.3478 1.38214 85.3478L0 82.9145C0.954926 82.8439 1.96013 82.7911 3.01558 82.7559C4.08785 82.7031 5.2605 82.6765 6.53376 82.6765ZM3.14121 82.9145V101.163H0V82.9145H3.14121Z" fill="white"/>
<path d="M27.131 82.6765C27.3991 82.6765 27.6335 82.7559 27.8346 82.9145C28.0357 83.0733 28.178 83.2847 28.2618 83.5493L33.5138 100.925H30.2974L26.3269 86.8554C26.26 86.573 26.1928 86.291 26.1258 86.0088C26.0588 85.7268 26.0002 85.4536 25.95 85.189H25.2462C25.1962 85.4536 25.1372 85.7268 25.0704 86.0088C25.0034 86.291 24.9279 86.573 24.8442 86.8554L20.8988 100.925H17.6822L22.9343 83.5493C23.0013 83.2847 23.1354 83.0733 23.3363 82.9145C23.5542 82.7559 23.7972 82.6765 24.0651 82.6765H27.131ZM30.0461 93.1233V95.715H21.1251V93.1233H30.0461Z" fill="white"/>
<path d="M51.6234 82.6765V99.6823C51.6234 100.511 51.2381 100.925 50.4673 100.925H48.3314C47.9794 100.925 47.7115 100.846 47.5273 100.687C47.343 100.511 47.1753 100.255 47.0245 99.9204L41.7724 88.9181C41.5882 88.5303 41.3955 88.1071 41.1945 87.6487C41.0102 87.1726 40.8595 86.723 40.7423 86.2998H40.4156C40.4489 86.7408 40.4742 87.1904 40.4909 87.6487C40.5244 88.0893 40.5411 88.5303 40.5411 88.9711V100.925H37.5255V83.9195C37.5255 83.0909 37.9107 82.6765 38.6815 82.6765H40.7672C41.1192 82.6765 41.3871 82.7646 41.5714 82.9409C41.7558 83.0997 41.9232 83.3465 42.0741 83.6815L47.1753 94.3927C47.3764 94.7807 47.5775 95.2214 47.7785 95.715C47.9963 96.1912 48.1973 96.6762 48.3816 97.1698H48.7585C48.725 96.6584 48.6916 96.1646 48.6581 95.6888C48.6413 95.195 48.633 94.7103 48.633 94.2341V82.6765H51.6234Z" fill="white"/>
<path d="M70.2856 82.6765L64.4306 94.9482H61.5155L55.635 82.6765H58.9272L62.1438 89.8173C62.2945 90.1524 62.4201 90.5138 62.5207 90.9018C62.6379 91.2896 62.7551 91.6598 62.8723 92.0124H63.0734C63.1741 91.6598 63.2829 91.2896 63.4001 90.9018C63.5175 90.5138 63.6431 90.1524 63.777 89.8173L66.9937 82.6765H70.2856ZM64.5311 92.8589V100.925H61.3898V92.8589H64.5311Z" fill="white"/>
<path d="M83.7462 82.6765C84.0143 82.6765 84.2487 82.7559 84.4498 82.9145C84.6509 83.0733 84.7931 83.2847 84.877 83.5493L90.1291 100.925H86.9124L82.9418 86.8554C82.875 86.573 82.808 86.291 82.7411 86.0088C82.6739 85.7268 82.6153 85.4536 82.5649 85.189H81.8615C81.811 85.4536 81.7524 85.7268 81.6855 86.0088C81.6183 86.291 81.5431 86.573 81.4593 86.8554L77.5139 100.925H74.2973L79.5494 83.5493C79.6165 83.2847 79.7505 83.0733 79.9516 82.9145C80.1693 82.7559 80.4122 82.6765 80.6803 82.6765H83.7462ZM86.6611 93.1233V95.715H77.7401V93.1233H86.6611Z" fill="white"/>
<path d="M116.958 82.6765L113.842 99.9997C113.775 100.264 113.633 100.485 113.415 100.661C113.214 100.837 112.963 100.925 112.661 100.925H109.545C109.26 100.925 109.009 100.837 108.791 100.661C108.573 100.485 108.448 100.255 108.414 99.9733L106.128 87.305C106.06 86.917 106.002 86.5378 105.951 86.1676C105.901 85.7974 105.851 85.427 105.801 85.0568H105.298C105.248 85.427 105.189 85.8062 105.122 86.194C105.072 86.5644 105.022 86.9346 104.972 87.305L102.71 99.9733C102.659 100.255 102.526 100.485 102.308 100.661C102.09 100.837 101.839 100.925 101.554 100.925H98.4125C98.1112 100.925 97.8514 100.837 97.6338 100.661C97.4327 100.485 97.3069 100.264 97.2567 99.9997L94.1407 82.6765H97.3571L99.5435 96.0326C99.5937 96.3852 99.6356 96.773 99.6691 97.1964C99.7195 97.6193 99.7697 98.0513 99.8199 98.4921H100.348C100.415 98.0865 100.482 97.6722 100.549 97.2492C100.616 96.8082 100.683 96.394 100.75 96.006L102.986 83.7079C103.02 83.3907 103.145 83.1437 103.363 82.9675C103.581 82.7735 103.832 82.6765 104.117 82.6765H106.957C107.258 82.6765 107.51 82.7735 107.711 82.9675C107.912 83.1437 108.046 83.3907 108.113 83.7079L110.349 96.0326C110.433 96.4382 110.5 96.8524 110.55 97.2756C110.617 97.6987 110.676 98.1043 110.726 98.4921H111.279C111.313 98.0865 111.354 97.6722 111.405 97.2492C111.455 96.826 111.505 96.4292 111.556 96.059L113.742 82.6765H116.958Z" fill="white"/>
<path d="M124.539 82.6765C125.41 82.6765 126.298 82.6765 127.202 82.6765C128.124 82.6765 129.028 82.6941 129.916 82.7293C130.804 82.7645 131.642 82.8175 132.429 82.8881L132.279 85.3478H125.493C125.024 85.3478 124.673 85.471 124.438 85.718C124.22 85.9648 124.111 86.3526 124.111 86.8816V96.826C124.111 97.355 124.22 97.7427 124.438 97.9897C124.673 98.2365 125.024 98.3599 125.493 98.3599H132.279L132.429 100.82C131.642 100.89 130.804 100.943 129.916 100.978C129.028 100.996 128.124 101.005 127.202 101.005C126.298 101.022 125.41 101.031 124.539 101.031C123.466 101.031 122.604 100.723 121.95 100.105C121.314 99.4707 120.987 98.6243 120.97 97.5664V86.1412C120.987 85.0832 121.314 84.2459 121.95 83.6285C122.604 82.9937 123.466 82.6765 124.539 82.6765ZM121.422 90.214H131.324V92.6472H121.422V90.214Z" fill="white"/>
<path d="M142.598 82.6765C144.072 82.6765 145.245 82.8175 146.116 83.0995C146.987 83.3641 147.615 83.8401 148 84.5279C148.403 85.2154 148.604 86.1852 148.604 87.437C148.604 88.7419 148.369 89.7379 147.9 90.4255C147.431 91.1132 146.66 91.51 145.588 91.6158V91.7216C146.912 91.845 147.833 92.321 148.352 93.1495C148.888 93.9783 149.157 95.1245 149.157 96.588C149.157 97.8397 148.955 98.8093 148.553 99.4971C148.168 100.185 147.548 100.67 146.694 100.952C145.856 101.216 144.759 101.348 143.402 101.348C142.346 101.348 141.425 101.34 140.637 101.322C139.85 101.322 139.13 101.304 138.476 101.269C137.823 101.234 137.144 101.19 136.441 101.137L136.793 98.7301C137.195 98.7477 137.94 98.7653 139.029 98.7831C140.118 98.8007 141.4 98.8093 142.874 98.8093C143.661 98.8093 144.281 98.7389 144.734 98.5979C145.186 98.4393 145.504 98.1571 145.689 97.7515C145.89 97.3284 145.99 96.7376 145.99 95.9794C145.99 95.1333 145.89 94.4897 145.689 94.0489C145.488 93.5905 145.152 93.2731 144.683 93.0967C144.231 92.9029 143.586 92.8058 142.748 92.8058H136.767V90.5578H142.723C143.444 90.5578 144.005 90.4872 144.407 90.3462C144.826 90.1876 145.127 89.9143 145.312 89.5263C145.496 89.1385 145.588 88.5831 145.588 87.8601C145.588 87.1372 145.488 86.5818 145.287 86.194C145.102 85.806 144.784 85.5504 144.332 85.427C143.879 85.2859 143.251 85.2154 142.447 85.2154C141.559 85.2154 140.772 85.2154 140.085 85.2154C139.398 85.2154 138.786 85.2242 138.25 85.2418C137.714 85.2418 137.228 85.2595 136.793 85.2947L136.441 82.8881C137.077 82.8175 137.68 82.7735 138.25 82.7558C138.836 82.7205 139.473 82.7029 140.16 82.7029C140.864 82.6852 141.676 82.6765 142.598 82.6765ZM139.507 82.8881V101.137H136.441V82.8881H139.507Z" fill="white"/>
</g>
<defs>
<clipPath id="clip0_8_19">
<rect width="150" height="101.114" fill="white" transform="translate(0 0.287197)"/>
</clipPath>
</defs>
</svg>
