<svg width="24" height="25" viewBox="0 0 24 25" fill="none" xmlns="http://www.w3.org/2000/svg">
<path d="M12 18.8413C5.37 18.8413 0 16.1213 0 12.7613C0 9.40127 5.37 6.68127 12 6.68127C18.63 6.68127 24 9.40127 24 12.7613C24 16.1213 18.63 18.8413 12 18.8413ZM6.81 10.8913C7.35 10.8913 7.72 10.9913 7.9 11.2013C8.08 11.4013 8.12 11.7613 8.03 12.2313C7.93 12.7613 7.74 13.1013 7.45 13.3213C7.17 13.5413 6.74 13.6513 6.16 13.6513H5.29L5.82 10.8913H6.81ZM3.31 16.4413H4.75L5.09 14.6913H6.32C6.86 14.6913 7.3 14.6313 7.65 14.5213C8 14.4013 8.32 14.2113 8.61 13.9413C8.85 13.7213 9.04 13.4813 9.19 13.2113C9.34 12.9513 9.45 12.6513 9.5 12.3313C9.66 11.5513 9.55 10.9413 9.17 10.5113C8.78 10.0713 8.18 9.86127 7.35 9.86127H4.59L3.31 16.4413ZM10.56 8.11127L9.28 14.6913H10.7L11.44 10.9213H12.58C12.94 10.9213 13.18 10.9813 13.29 11.1013C13.4 11.2213 13.42 11.4413 13.36 11.7613L12.79 14.6913H14.24L14.83 11.6213C14.96 11.0013 14.86 10.5513 14.56 10.2613C14.26 9.99127 13.71 9.86127 12.91 9.86127H11.64L12 8.11127H10.56ZM18 10.8913C18.55 10.8913 18.91 10.9913 19.09 11.2013C19.27 11.4013 19.31 11.7613 19.22 12.2313C19.12 12.7613 18.93 13.1013 18.65 13.3213C18.36 13.5413 17.93 13.6513 17.35 13.6513H16.5L17 10.8913H18ZM14.5 16.4413H15.94L16.28 14.6913H17.5C18.05 14.6913 18.5 14.6313 18.85 14.5213C19.2 14.4013 19.5 14.2113 19.8 13.9413C20.04 13.7213 20.24 13.4813 20.38 13.2113C20.53 12.9513 20.64 12.6513 20.7 12.3313C20.85 11.5513 20.74 10.9413 20.36 10.5113C20 10.0713 19.37 9.86127 18.54 9.86127H15.79L14.5 16.4413Z" fill="#78AEFF"/>
</svg>
